<?xml version="1.0" encoding="UTF-8"?>
<svg width="16px" height="16px" viewBox="0 0 16 16" version="1.1" xmlns="http://www.w3.org/2000/svg" xmlns:xlink="http://www.w3.org/1999/xlink">
    <!-- Generator: Sketch 58 (84663) - https://sketch.com -->
    <title>后台管理</title>
    <desc>Created with Sketch.</desc>
    <g id="云测平台" stroke="none" stroke-width="1" fill="none" fill-rule="evenodd">
        <g id="画板" transform="translate(-300.000000, -127.000000)" fill="#9FAAC4" fill-rule="nonzero">
            <path d="M315.190506,133.396002 L313.341661,133.396002 C313.23173,133.026234 313.07183,132.686446 312.891943,132.356652 L314.251093,130.997502 C314.560899,130.687695 314.560899,130.178014 314.251093,129.868207 L313.121799,128.738913 C312.811993,128.429107 312.302311,128.429107 311.992505,128.738913 L310.633354,130.098064 C310.30356,129.92817 309.963773,129.76827 309.594004,129.658339 L309.594004,127.7995 C309.594004,127.359775 309.234229,127 308.794503,127 L307.195503,127 C306.755778,127 306.396002,127.359775 306.396002,127.7995 L306.396002,129.658339 C306.006246,129.778264 305.646471,129.938164 305.29669,130.128045 L303.997502,128.828857 C303.697689,128.529044 303.207995,128.529044 302.908182,128.828857 L301.828857,129.918176 C301.529044,130.217989 301.529044,130.707683 301.828857,131.007495 L303.128045,132.306683 C302.92817,132.646471 302.76827,133.006246 302.648345,133.396002 L300.7995,133.396002 C300.359775,133.396002 300,133.755778 300,134.195503 L300,135.794503 C300,136.234229 300.359775,136.594004 300.7995,136.594004 L302.648345,136.594004 C302.758276,136.963773 302.918176,137.30356 303.098064,137.633354 L301.738913,138.992505 C301.429107,139.302311 301.429107,139.811993 301.738913,140.121799 L302.868207,141.251093 C303.178014,141.560899 303.687695,141.560899 303.997502,141.251093 L305.356652,139.891943 C305.686446,140.07183 306.026234,140.221736 306.396002,140.331668 L306.396002,142.190506 C306.396002,142.630231 306.755778,142.990006 307.195503,142.990006 L308.794503,142.990006 C309.234229,142.990006 309.594004,142.630231 309.594004,142.190506 L309.594004,140.331668 C309.98376,140.211743 310.343535,140.051843 310.693317,139.861961 L311.992505,141.161149 C312.292317,141.460962 312.782011,141.460962 313.081824,141.161149 L314.171143,140.07183 C314.470956,139.772017 314.470956,139.282324 314.171143,138.982511 L312.871955,137.683323 C313.061836,137.333542 313.23173,136.973766 313.351655,136.58401 L315.2005,136.58401 C315.640225,136.58401 316,136.224235 316,135.78451 L316,134.185509 C315.990006,133.755778 315.630231,133.396002 315.190506,133.396002 L315.190506,133.396002 Z M307.995003,137.993129 C306.33604,137.993129 304.996877,136.653966 304.996877,134.995003 C304.996877,133.33604 306.33604,131.996877 307.995003,131.996877 C309.653966,131.996877 310.993129,133.33604 310.993129,134.995003 C310.993129,136.653966 309.653966,137.993129 307.995003,137.993129 Z" id="cog"></path>
        </g>
    </g>
</svg>