<?xml version="1.0" encoding="UTF-8"?>
<svg width="16px" height="16px" viewBox="0 0 16 16" version="1.1" xmlns="http://www.w3.org/2000/svg" xmlns:xlink="http://www.w3.org/1999/xlink">
    <!-- Generator: Sketch 58 (84663) - https://sketch.com -->
    <title>dashboard</title>
    <desc>Created with Sketch.</desc>
    <g id="云测平台" stroke="none" stroke-width="1" fill="none" fill-rule="evenodd">
        <g id="画板" transform="translate(-160.000000, -95.000000)" fill="#9FAAC4" fill-rule="nonzero">
            <path d="M161.955556,104.777778 L161.955556,109.666667 C161.955556,110.204444 162.395556,110.644444 162.933333,110.644444 L165.866667,110.644444 L165.866667,105.755556 L169.777778,105.755556 L169.777778,110.644444 L172.711111,110.644444 C173.248889,110.644444 173.688889,110.204444 173.688889,109.666667 L173.688889,104.777778 L167.822222,98.9111111 L161.955556,104.777778 Z M175.360889,102.128 L173.688889,100.465778 L173.688889,96.9555556 C173.688889,96.4177778 173.248889,95.9777778 172.711111,95.9777778 C172.173333,95.9777778 171.733333,96.4177778 171.733333,96.9555556 L171.733333,98.5102222 L168.516444,95.2835556 C168.340444,95.1075556 168.096,95 167.822222,95 C167.548444,95 167.304,95.1075556 167.128,95.2835556 L160.283556,102.128 C160.107556,102.304 160,102.548444 160,102.822222 C160,103.36 160.44,103.8 160.977778,103.8 C161.251556,103.8 161.496,103.692444 161.672,103.516444 L167.822222,97.3564444 L173.972444,103.506667 C174.148444,103.692444 174.392889,103.8 174.666667,103.8 C175.204444,103.8 175.644444,103.36 175.644444,102.822222 C175.644444,102.548444 175.536889,102.304 175.360889,102.128 Z" id="home"></path>
        </g>
    </g>
</svg>