<?xml version="1.0" encoding="UTF-8"?>
<svg width="16px" height="16px" viewBox="0 0 16 16" version="1.1" xmlns="http://www.w3.org/2000/svg" xmlns:xlink="http://www.w3.org/1999/xlink">
    <!-- Generator: Sketch 58 (84663) - https://sketch.com -->
    <title>度量平台</title>
    <desc>Created with Sketch.</desc>
    <g id="云测平台" stroke="none" stroke-width="1" fill="none" fill-rule="evenodd">
        <g id="画板" transform="translate(-208.000000, -95.000000)" fill="#9FAAC4" fill-rule="nonzero">
            <g id="Icon-/-filter-list备份" transform="translate(208.000000, 95.000000)">
                <path d="M8.8,7.82222222 C8.8,8.36 9.24,8.8 9.77777778,8.8 L14.6666667,8.8 C15.2044444,8.8 15.6444444,8.36 15.6444444,7.82222222 C15.6444444,7.28444444 15.2044444,6.84444444 14.6666667,6.84444444 L9.77777778,6.84444444 C9.24,6.84444444 8.8,7.28444444 8.8,7.82222222 Z M11.7333333,1.95555556 C11.7333333,1.41777778 11.2933333,0.977777778 10.7555556,0.977777778 L0.977777778,0.977777778 C0.44,0.977777778 0,1.41777778 0,1.95555556 C0,2.22933333 0.107555556,2.47377778 0.283555556,2.64977778 L3.91111111,6.26755556 L3.91111111,11.7333333 C3.91111111,12.2711111 4.35111111,12.7111111 4.88888889,12.7111111 C5.16266667,12.7111111 5.40711111,12.6035556 5.58311111,12.4275556 L7.53866667,10.472 C7.71466667,10.296 7.82222222,10.0515556 7.82222222,9.77777778 L7.82222222,6.26755556 L11.4497778,2.64 C11.6257778,2.47377778 11.7333333,2.22933333 11.7333333,1.95555556 Z M14.6666667,9.77777778 L9.77777778,9.77777778 C9.24,9.77777778 8.8,10.2177778 8.8,10.7555556 C8.8,11.2933333 9.24,11.7333333 9.77777778,11.7333333 L14.6666667,11.7333333 C15.2044444,11.7333333 15.6444444,11.2933333 15.6444444,10.7555556 C15.6444444,10.2177778 15.2044444,9.77777778 14.6666667,9.77777778 Z M14.6666667,12.7111111 L9.77777778,12.7111111 C9.24,12.7111111 8.8,13.1511111 8.8,13.6888889 C8.8,14.2266667 9.24,14.6666667 9.77777778,14.6666667 L14.6666667,14.6666667 C15.2044444,14.6666667 15.6444444,14.2266667 15.6444444,13.6888889 C15.6444444,13.1511111 15.2044444,12.7111111 14.6666667,12.7111111 Z" id="filter-list"></path>
            </g>
        </g>
    </g>
</svg>