<?xml version="1.0" encoding="UTF-8"?>
<svg width="16px" height="16px" viewBox="0 0 16 16" version="1.1" xmlns="http://www.w3.org/2000/svg" xmlns:xlink="http://www.w3.org/1999/xlink">
    <!-- Generator: Sketch 58 (84663) - https://sketch.com -->
    <title>用例平台</title>
    <desc>Created with Sketch.</desc>
    <g id="云测平台" stroke="none" stroke-width="1" fill="none" fill-rule="evenodd">
        <g id="画板" transform="translate(-232.000000, -95.000000)" fill="#9FAAC4" fill-rule="nonzero">
            <g id="Icon-/-projects备份" transform="translate(232.000000, 95.000000)">
                <path d="M13.6888889,2.93333333 C13.6888889,2.39555556 13.2488889,1.95555556 12.7111111,1.95555556 L2.93333333,1.95555556 C2.39555556,1.95555556 1.95555556,2.39555556 1.95555556,2.93333333 L1.95555556,3.91111111 L13.6888889,3.91111111 L13.6888889,2.93333333 Z M11.7333333,0 L3.91111111,0 C3.37333333,0 2.93333333,0.44 2.93333333,0.977777778 L12.7111111,0.977777778 C12.7111111,0.44 12.2711111,0 11.7333333,0 Z M14.6666667,4.88888889 L0.977777778,4.88888889 C0.44,4.88888889 0,5.32888889 0,5.86666667 L0,14.6666667 C0,15.2044444 0.44,15.6444444 0.977777778,15.6444444 L14.6666667,15.6444444 C15.2044444,15.6444444 15.6444444,15.2044444 15.6444444,14.6666667 L15.6444444,5.86666667 C15.6444444,5.32888889 15.2044444,4.88888889 14.6666667,4.88888889 Z M11.7333333,10.7555556 C11.7333333,11.2933333 11.2933333,11.7333333 10.7555556,11.7333333 L4.88888889,11.7333333 C4.35111111,11.7333333 3.91111111,11.2933333 3.91111111,10.7555556 L3.91111111,8.8 L4.88888889,8.8 L4.88888889,10.7555556 L10.7555556,10.7555556 L10.7555556,8.8 L11.7333333,8.8 L11.7333333,10.7555556 Z" id="projects"></path>
            </g>
        </g>
    </g>
</svg>