<?xml version="1.0" encoding="UTF-8"?>
<svg width="20px" height="20px" viewBox="0 0 20 20" version="1.1" xmlns="http://www.w3.org/2000/svg" xmlns:xlink="http://www.w3.org/1999/xlink">
    <!-- Generator: Sketch 58 (84663) - https://sketch.com -->
    <desc>Created with Sketch.</desc>
    <g id="云测平台" stroke="none" stroke-width="1" fill="none" fill-rule="evenodd">
        <g id="画板" transform="translate(-94.000000, -197.000000)">
            <rect id="矩形备份-10" x="94" y="197" width="20" height="20"></rect>
            <g id="hammer-solid" transform="translate(98.000000, 201.000000)" fill="#000000" fill-opacity="0.651469624" fill-rule="nonzero">
                <path d="M2.17226215,0 L3.24487826,0.776113014 C5.2674032,2.2307363 5.88093961,3.65710616 6.00665022,3.97303082 L5.61793414,4.36087329 L5.61793414,4.37457192 L5.32275019,4.66866438 L0.294754907,9.87243151 L0,10.1806507 L1.82344739,12 L2.13193178,11.6789384 L7.45468197,6.1802226 L7.58897351,6.01969178 L7.62887483,5.99315068 L8.04462083,5.84589041 L8.12528156,5.92636986 L7.96438915,6.31421233 L7.84339805,6.5817637 L9.26482892,8 L12,5.27097603 L10.7797919,4.05351027 L10.5785691,3.86601027 L10.3241446,3.95976027 L9.93499946,4.10702055 L9.84146734,4.01327055 L9.97532983,3.58518836 L10.0289606,3.41138699 L9.9482999,3.25085616 C9.9482999,3.25085616 9.496514,2.41309932 8.47366727,1.60530822 C7.4512496,0.797517123 5.83245736,0 3.4993028,0 L2.17226215,0 Z M4.75941221,0.963184932 C6.20444063,1.17722603 7.24702349,1.71917808 7.95065966,2.27440068 C8.70835568,2.87243151 9.00997533,3.35702055 9.10436555,3.51840753 L8.94347313,4.01327055 L8.87611284,4.25428082 L9.05073474,4.44135274 L9.73420573,5.12371575 L10.0023598,5.01669521 L10.3777754,4.86943493 L10.780221,5.27097603 L9.26525796,6.78210616 L8.8628124,6.38099315 L9.02370482,5.99315068 L9.14469591,5.72559932 L8.93017269,5.52482877 L8.44749544,5.0432363 L8.2595731,4.84246575 L7.99141907,4.93664384 L7.22728735,5.24400685 L7.14662662,5.27097603 L6.83857128,4.97645548 L6.52965784,4.66866438 L7.02606457,4.17380137 L6.9321034,3.91952055 C6.9321034,3.91952055 6.35589403,2.46660959 4.7602703,0.963184932 L4.75941221,0.963184932 Z M5.92641853,5.27097603 L6.54295828,5.88613014 L1.81014695,10.7688356 L1.2064786,10.1669521 L5.92641853,5.27097603 Z" id="形状"></path>
            </g>
        </g>
    </g>
</svg>