<?xml version="1.0" encoding="UTF-8"?>
<svg width="40px" height="40px" viewBox="0 0 40 40" version="1.1" xmlns="http://www.w3.org/2000/svg" xmlns:xlink="http://www.w3.org/1999/xlink">
    <!-- Generator: Sketch 58 (84663) - https://sketch.com -->
    <title>云真机1-手机功能icon3</title>
    <desc>Created with Sketch.</desc>
    <g id="云测平台" stroke="none" stroke-width="1" fill="none" fill-rule="evenodd">
        <g id="画板" transform="translate(-164.000000, -239.000000)" fill="#333333" fill-rule="nonzero">
            <path d="M192.606001,258.855474 L184.508073,250.736818 L183.965277,250.19235 C183.707501,249.935883 183.292545,249.935883 183.03477,250.19235 L174.394045,258.855474 C174.136269,259.114044 173.997951,259.456701 174.000023,259.822482 C174.008429,260.562453 174.62248,261.153168 175.36018,261.153168 L176.250868,261.153168 L176.250868,268 L190.749178,268 L190.749178,261.153168 L191.658728,261.153168 C192.017099,261.153168 192.354513,261.012321 192.608097,260.757956 C192.861681,260.503591 193,260.165139 193,259.805664 C193,259.448292 192.859586,259.109839 192.606001,258.855474 Z M184.673636,266.486423 L182.32641,266.486423 L182.32641,262.197956 L184.673636,262.197956 L184.673636,266.486423 Z M189.240247,259.639591 L189.240247,266.486423 L186.014908,266.486423 L186.014908,261.693431 C186.014908,261.228847 185.639771,260.852555 185.176613,260.852555 L181.823433,260.852555 C181.360276,260.852555 180.985139,261.228847 180.985139,261.693431 L180.985139,266.486423 L177.759799,266.486423 L177.759799,259.639591 L175.747891,259.639591 L183.502119,251.867796 L183.986234,252.353401 L191.254251,259.639591 L189.240247,259.639591 Z" id="形状"></path>
        </g>
    </g>
</svg>