<?xml version="1.0" encoding="UTF-8"?>
<svg width="20px" height="20px" viewBox="0 0 20 20" version="1.1" xmlns="http://www.w3.org/2000/svg" xmlns:xlink="http://www.w3.org/1999/xlink">
    <!-- Generator: Sketch 58 (84663) - https://sketch.com -->
    <title>键盘状态</title>
    <desc>Created with Sketch.</desc>
    <g id="云测平台" stroke="none" stroke-width="1" fill="none" fill-rule="evenodd">
        <g id="画板" transform="translate(-70.000000, -197.000000)">
            <rect id="矩形备份-9" x="70" y="197" width="20" height="20"></rect>
            <g id="keyboard" transform="translate(73.000000, 203.000000)" fill="currentColor" fill-opacity="0.651469624" fill-rule="nonzero">
                <path d="M1.65964286,9 L13.3457143,9 C14.445,9 15,8.40790993 15,7.23989608 L15,1.76587761 C15,0.592378757 14.445,0 13.3457143,0 L1.65964286,0 C0.555,0 0,0.592378757 0,1.76558892 L0,7.23960739 C0,8.41310624 0.555,9 1.65964286,9 L1.65964286,9 Z M1.67571429,8.08314087 C1.14696429,8.08314087 0.850714292,7.78117783 0.850714292,7.18879907 L0.850714292,1.8169746 C0.850714292,1.22459584 1.14696429,0.917147817 1.67571429,0.917147817 L13.3299107,0.917147817 C13.8530357,0.917147817 14.1490179,1.22459586 14.1490179,1.8169746 L14.1490179,7.18879907 C14.1490179,7.78117783 13.8530357,8.08314087 13.3299107,8.08314087 L1.67571429,8.08314087 Z M12.405,3.10450347 L12.78,3.10450347 C12.9334821,3.10450347 13.0023214,3.03031178 13.0023214,2.86518477 L13.0023214,2.46102772 C13.0023214,2.30138569 12.9334821,2.22142033 12.78,2.22142033 L12.405,2.22142033 C12.2517857,2.22142033 12.1826786,2.30138569 12.1826786,2.46102772 L12.1826786,2.86518477 C12.1826786,3.03031179 12.2517857,3.10450347 12.405,3.10450347 Z M10.7030357,3.10450347 L11.0780357,3.10450347 C11.2315178,3.10450347 11.3057143,3.03031178 11.3057143,2.86518477 L11.3057143,2.46102772 C11.3057143,2.30138569 11.2315179,2.22142033 11.0780357,2.22142033 L10.7030357,2.22142033 C10.5549107,2.22142033 10.4807143,2.30138569 10.4807143,2.46102772 L10.4807143,2.86518477 C10.4807143,3.03031179 10.5549107,3.10450347 10.7030357,3.10450347 Z M9.00107143,3.10450347 L9.38142857,3.10450347 C9.52955357,3.10450347 9.60375,3.03031178 9.60375,2.86518477 L9.60375,2.46102772 C9.60375,2.30138569 9.52955357,2.22142033 9.38142857,2.22142033 L9.00107143,2.22142033 C8.85294643,2.22142033 8.77901786,2.30138569 8.77901786,2.46102772 L8.77901786,2.86518477 C8.77901786,3.03031179 8.85294643,3.10450347 9.00107143,3.10450347 Z M7.30446429,3.10450347 L7.67973214,3.10450347 C7.83294643,3.10450347 7.90178571,3.03031178 7.90178571,2.86518477 L7.90178571,2.46102772 C7.90178571,2.30138569 7.83294642,2.22142033 7.67973214,2.22142033 L7.30446429,2.22142033 C7.15125,2.22142033 7.08241071,2.30138569 7.08241071,2.46102772 L7.08241071,2.86518477 C7.08241071,3.03031179 7.15125,3.10450347 7.30446429,3.10450347 L7.30446429,3.10450347 Z M5.6025,3.10450347 L5.98285714,3.10450347 C6.13098214,3.10450347 6.20517857,3.03031178 6.20517857,2.86518477 L6.20517857,2.46102772 C6.20517857,2.30138569 6.13098214,2.22142033 5.98285714,2.22142033 L5.6025,2.22142033 C5.45464286,2.22142033 5.38044643,2.30138569 5.38044643,2.46102772 L5.38044643,2.86518477 C5.38044643,3.03031179 5.45464286,3.10450347 5.60276786,3.10450347 L5.6025,3.10450347 Z M3.90053571,3.10450347 L4.28116071,3.10450347 C4.42928571,3.10450347 4.50321429,3.03031178 4.50321429,2.86518477 L4.50321429,2.46102772 C4.50321429,2.30138569 4.42928572,2.22142033 4.28116071,2.22142033 L3.90080357,2.22142033 C3.75267857,2.22142033 3.67848214,2.30138569 3.67848214,2.46102772 L3.67848214,2.86518477 C3.67848214,3.03031179 3.75267857,3.10450347 3.90080357,3.10450347 L3.90053571,3.10450347 Z M2.20392857,3.10450347 L2.57946429,3.10450347 C2.73294643,3.10450347 2.80178571,3.03031178 2.80178571,2.86518477 L2.80178571,2.46102772 C2.80178571,2.30138569 2.73294642,2.22142033 2.57946429,2.22142033 L2.20446429,2.22142033 C2.05098215,2.22142033 1.98214286,2.30138569 1.98214286,2.46102772 L1.98214286,2.86518477 C1.98214286,3.03031179 2.05098215,3.10450347 2.20446429,3.10450347 L2.20392857,3.10450347 Z M5.6025,4.93879907 L5.98285714,4.93879907 C6.13098214,4.93879907 6.20517857,4.85883371 6.20517857,4.69919168 L6.20517857,4.29503464 C6.20517857,4.12990761 6.13098214,4.05571593 5.98285714,4.05571593 L5.6025,4.05571593 C5.45464286,4.05571593 5.38044643,4.12990762 5.38044643,4.29503464 L5.38044643,4.69919168 C5.38044643,4.85883371 5.45464286,4.93879907 5.60276786,4.93879907 L5.6025,4.93879907 Z M7.30446429,4.93879907 L7.67973214,4.93879907 C7.83294643,4.93879907 7.90178571,4.85883371 7.90178571,4.69919168 L7.90178571,4.29503464 C7.90178571,4.12990761 7.83294642,4.05571593 7.67973214,4.05571593 L7.30446429,4.05571593 C7.15125,4.05571593 7.08241071,4.12990762 7.08241071,4.29503464 L7.08241071,4.69919168 C7.08241071,4.85883371 7.15125,4.93879907 7.30446429,4.93879907 L7.30446429,4.93879907 Z M9.00107143,4.93879907 L9.38142857,4.93879907 C9.52955357,4.93879907 9.60375,4.85883371 9.60375,4.69919168 L9.60375,4.29503464 C9.60375,4.12990761 9.52955357,4.05571593 9.38142857,4.05571593 L9.00107143,4.05571593 C8.85294643,4.05571593 8.77901786,4.12990762 8.77901786,4.29503464 L8.77901786,4.69919168 C8.77901786,4.85883371 8.85294643,4.93879907 9.00107143,4.93879907 Z M10.7030357,4.93879907 L11.0780357,4.93879907 C11.2315178,4.93879907 11.3057143,4.85883371 11.3057143,4.69919168 L11.3057143,4.29503464 C11.3057143,4.12990761 11.2315179,4.05571593 11.0780357,4.05571593 L10.7030357,4.05571593 C10.5549107,4.05571593 10.4807143,4.12990762 10.4807143,4.29503464 L10.4807143,4.69919168 C10.4807143,4.85883371 10.5549107,4.93879907 10.7030357,4.93879907 Z M3.90053571,4.93879907 L4.28116071,4.93879907 C4.42928571,4.93879907 4.50321429,4.85883371 4.50321429,4.69919168 L4.50321429,4.29503464 C4.50321429,4.12990761 4.42928572,4.05571593 4.28116071,4.05571593 L3.90080357,4.05571593 C3.75267857,4.05571593 3.67848214,4.12990762 3.67848214,4.29503464 L3.67848214,4.69919168 C3.67848214,4.85883371 3.75267857,4.93879907 3.90080357,4.93879907 L3.90053571,4.93879907 Z M12.405,4.93879907 L12.78,4.93879907 C12.9334821,4.93879907 13.0023214,4.85883371 13.0023214,4.69919168 L13.0023214,4.29503464 C13.0023214,4.12990761 12.9334821,4.05571593 12.78,4.05571593 L12.405,4.05571593 C12.2517857,4.05571593 12.1826786,4.12990762 12.1826786,4.29503464 L12.1826786,4.69919168 C12.1826786,4.85883371 12.2517857,4.93879907 12.405,4.93879907 Z M2.20392857,4.93879907 L2.57946429,4.93879907 C2.73294643,4.93879907 2.80178571,4.85883371 2.80178571,4.69919168 L2.80178571,4.29503464 C2.80178571,4.12990761 2.73294642,4.05571593 2.57946429,4.05571593 L2.20446429,4.05571593 C2.05098215,4.05571593 1.98214286,4.12990762 1.98214286,4.29503464 L1.98214286,4.69919168 C1.98214286,4.85883371 2.05098215,4.93879907 2.20446429,4.93879907 L2.20392857,4.93879907 Z M3.90053571,6.772806 L11.0785714,6.772806 C11.2317857,6.772806 11.3059821,6.69312933 11.3059821,6.53377599 L11.3059821,6.12355659 C11.3059821,5.96420324 11.2317857,5.88423788 11.0783036,5.88423788 L3.90080357,5.88423788 C3.75294643,5.88423788 3.67901786,5.96420324 3.67901786,6.12355659 L3.67901786,6.5334873 C3.67901786,6.69312933 3.75294643,6.77309469 3.90080357,6.77309469 L3.90053571,6.772806 Z M12.405,6.772806 L12.78,6.772806 C12.9334821,6.772806 13.0023214,6.69312933 13.0023214,6.53377599 L13.0023214,6.12355659 C13.0023214,5.96420324 12.9334821,5.88423788 12.78,5.88423788 L12.405,5.88423788 C12.2517857,5.88423788 12.1826786,5.96420324 12.1826786,6.12355659 L12.1826786,6.5334873 C12.1826786,6.69312933 12.2517857,6.77309469 12.405,6.77309469 L12.405,6.772806 Z M2.20392857,6.772806 L2.57946429,6.772806 C2.73294643,6.772806 2.80178571,6.69312933 2.80178571,6.53377599 L2.80178571,6.12355659 C2.80178571,5.96420324 2.73294642,5.88423788 2.57946429,5.88423788 L2.20446429,5.88423788 C2.05098215,5.88423788 1.98214286,5.96420324 1.98214286,6.12355659 L1.98214286,6.5334873 C1.98214286,6.69312933 2.05098215,6.77309469 2.20446429,6.77309469 L2.20392857,6.772806 Z" id="形状"></path>
            </g>
        </g>
    </g>
</svg>