<?xml version="1.0" encoding="UTF-8"?>
<svg width="20px" height="20px" viewBox="0 0 20 20" version="1.1" xmlns="http://www.w3.org/2000/svg" xmlns:xlink="http://www.w3.org/1999/xlink">
    <!-- Generator: Sketch 58 (84663) - https://sketch.com -->
    <title>连接状态</title>
    <desc>Created with Sketch.</desc>
    <g id="云测平台" stroke="none" stroke-width="1" fill="none" fill-rule="evenodd">
        <g id="画板" transform="translate(-22.000000, -197.000000)">
            <rect id="矩形" x="22" y="197" width="20" height="20"></rect>
            <g id="link" transform="translate(25.000000, 200.000000)" fill="currentColor" fill-opacity="0.649999976" fill-rule="nonzero" >
                <path d="M7.96875,9.396875 C7.9203125,9.3484375 7.840625,9.3484375 7.7921875,9.396875 L5.9765625,11.2125 C5.1359375,12.053125 3.7171875,12.1421875 2.7890625,11.2125 C1.859375,10.2828125 1.9484375,8.865625 2.7890625,8.025 L4.6046875,6.209375 C4.653125,6.1609375 4.653125,6.08125 4.6046875,6.0328125 L3.9828125,5.4109375 C3.934375,5.3625 3.8546875,5.3625 3.80625,5.4109375 L1.990625,7.2265625 C0.66875,8.5484375 0.66875,10.6875 1.990625,12.0078125 C3.3125,13.328125 5.4515625,13.3296875 6.771875,12.0078125 L8.5875,10.1921875 C8.6359375,10.14375 8.6359375,10.0640625 8.5875,10.015625 L7.96875,9.396875 Z M12.009375,1.990625 C10.6875,0.66875 8.5484375,0.66875 7.228125,1.990625 L5.4109375,3.80625 C5.3625,3.8546875 5.3625,3.934375 5.4109375,3.9828125 L6.03125,4.603125 C6.0796875,4.6515625 6.159375,4.6515625 6.2078125,4.603125 L8.0234375,2.7875 C8.8640625,1.946875 10.2828125,1.8578125 11.2109375,2.7875 C12.140625,3.7171875 12.0515625,5.134375 11.2109375,5.975 L9.3953125,7.790625 C9.346875,7.8390625 9.346875,7.91875 9.3953125,7.9671875 L10.0171875,8.5890625 C10.065625,8.6375 10.1453125,8.6375 10.19375,8.5890625 L12.009375,6.7734375 C13.3296875,5.4515625 13.3296875,3.3125 12.009375,1.990625 L12.009375,1.990625 Z M8.5328125,4.8171875 C8.484375,4.76875 8.4046875,4.76875 8.35625,4.8171875 L4.8171875,8.3546875 C4.76875,8.403125 4.76875,8.4828125 4.8171875,8.53125 L5.4359375,9.15 C5.484375,9.1984375 5.5640625,9.1984375 5.6125,9.15 L9.15,5.6125 C9.1984375,5.5640625 9.1984375,5.484375 9.15,5.4359375 L8.5328125,4.8171875 Z" id="形状"></path>
            </g>
        </g>
    </g>
</svg>