<?xml version="1.0" encoding="UTF-8"?>
<svg width="20px" height="20px" viewBox="0 0 20 20" version="1.1" xmlns="http://www.w3.org/2000/svg" xmlns:xlink="http://www.w3.org/1999/xlink">
    <!-- Generator: Sketch 58 (84663) - https://sketch.com -->
    <title>鼠标状态</title>
    <desc>Created with Sketch.</desc>
    <g id="云测平台" stroke="none" stroke-width="1" fill="none" fill-rule="evenodd">
        <g id="画板" transform="translate(-46.000000, -197.000000)">
            <rect id="矩形备份-7" x="46" y="197" width="20" height="20"></rect>
            <g id="选择指针" transform="translate(53.000000, 201.000000)" fill-rule="nonzero" stroke="currentColor" stroke-opacity="0.65">
                <path d="M5.81334681,6.87333333 C6.02113376,6.87484289 6.20877824,6.74932904 6.28671037,6.55670434 C6.36464251,6.36407964 6.31706172,6.14339831 6.16668014,6 L-8.2600593e-14,1.86517468e-13 L-8.2600593e-14,8.70666667 C-0.0014961058,8.91445362 0.12401775,9.10209812 0.316642459,9.18003025 C0.509267168,9.25796239 0.729948507,9.21038159 0.873346811,9.06 L2.20668014,7.64666667 L3.62668014,10.98 C3.67823108,11.1051559 3.7777175,11.2044813 3.90295677,11.2558294 C4.02819603,11.3071775 4.16877437,11.3062787 4.29334681,11.2533333 L5.14668014,10.9066667 C5.27183605,10.8551157 5.37116142,10.7556293 5.42250951,10.63039 C5.47385761,10.5051508 5.47295879,10.3645724 5.42001347,10.24 L4.00001347,6.87333333 L5.81334681,6.87333333 Z" id="路径"></path>
            </g>
        </g>
    </g>
</svg>