<?xml version="1.0" encoding="UTF-8"?>
<svg width="40px" height="40px" viewBox="0 0 40 40" version="1.1" xmlns="http://www.w3.org/2000/svg" xmlns:xlink="http://www.w3.org/1999/xlink">
    <!-- Generator: Sketch 58 (84663) - https://sketch.com -->
    <title>云真机1-手机功能icon1</title>
    <desc>Created with Sketch.</desc>
    <g id="云测平台" stroke="none" stroke-width="1" fill="none" fill-rule="evenodd">
        <g id="画板" transform="translate(-22.000000, -239.000000)" fill="#333333" fill-rule="nonzero">
            <g id="Batch-folding" transform="translate(31.000000, 248.000000)">
                <rect id="矩形" opacity="0" x="0" y="0" width="22" height="22"></rect>
                <path d="M15.6,4.72 L2.68,4.72 C2.303875,4.72 2,5.023875 2,5.4 L2,18.32 C2,18.696125 2.303875,19 2.68,19 L15.6,19 C15.976125,19 16.28,18.696125 16.28,18.32 L16.28,5.4 C16.28,5.023875 15.976125,4.72 15.6,4.72 Z M14.75,17.47 L3.53,17.47 L3.53,6.25 L14.75,6.25 L14.75,17.47 Z M18.32,2 L5.23,2 C5.1365,2 5.06,2.0765 5.06,2.17 L5.06,3.36 C5.06,3.4535 5.1365,3.53 5.23,3.53 L17.47,3.53 L17.47,15.77 C17.47,15.8635 17.5465,15.94 17.64,15.94 L18.83,15.94 C18.9235,15.94 19,15.8635 19,15.77 L19,2.68 C19,2.303875 18.696125,2 18.32,2 Z M5.995,11.3075 L12.285,11.3075 L12.285,12.6675 L5.995,12.6675 L5.995,11.3075 Z" id="形状"></path>
            </g>
        </g>
    </g>
</svg>