<?xml version="1.0" encoding="UTF-8"?>
<svg width="40px" height="40px" viewBox="0 0 40 40" version="1.1" xmlns="http://www.w3.org/2000/svg" xmlns:xlink="http://www.w3.org/1999/xlink">
    <!-- Generator: Sketch 58 (84663) - https://sketch.com -->
    <title>云真机1-手机功能icon2</title>
    <desc>Created with Sketch.</desc>
    <g id="云测平台" stroke="none" stroke-width="1" fill="none" fill-rule="evenodd">
        <g id="画板" transform="translate(-94.000000, -239.000000)" fill="#333333" fill-rule="nonzero">
            <g id="menu" transform="translate(103.000000, 248.000000)">
                <rect id="矩形" opacity="0" x="0" y="0" width="22" height="22"></rect>
                <path d="M19.421875,3.4375 L2.578125,3.4375 C2.48359375,3.4375 2.40625,3.51484375 2.40625,3.609375 L2.40625,4.984375 C2.40625,5.07890625 2.48359375,5.15625 2.578125,5.15625 L19.421875,5.15625 C19.5164062,5.15625 19.59375,5.07890625 19.59375,4.984375 L19.59375,3.609375 C19.59375,3.51484375 19.5164062,3.4375 19.421875,3.4375 Z M19.421875,16.84375 L2.578125,16.84375 C2.48359375,16.84375 2.40625,16.9210938 2.40625,17.015625 L2.40625,18.390625 C2.40625,18.4851562 2.48359375,18.5625 2.578125,18.5625 L19.421875,18.5625 C19.5164062,18.5625 19.59375,18.4851562 19.59375,18.390625 L19.59375,17.015625 C19.59375,16.9210938 19.5164062,16.84375 19.421875,16.84375 Z M19.421875,10.140625 L2.578125,10.140625 C2.48359375,10.140625 2.40625,10.2179688 2.40625,10.3125 L2.40625,11.6875 C2.40625,11.7820312 2.48359375,11.859375 2.578125,11.859375 L19.421875,11.859375 C19.5164062,11.859375 19.59375,11.7820312 19.59375,11.6875 L19.59375,10.3125 C19.59375,10.2179688 19.5164062,10.140625 19.421875,10.140625 Z" id="形状"></path>
            </g>
        </g>
    </g>
</svg>