<?xml version="1.0" encoding="UTF-8"?>
<svg width="17px" height="18px" viewBox="0 0 17 18" version="1.1" xmlns="http://www.w3.org/2000/svg" xmlns:xlink="http://www.w3.org/1999/xlink">
    <!-- Generator: Sketch 58 (84663) - https://sketch.com -->
    <title>反馈</title>
    <desc>Created with Sketch.</desc>
    <g id="云测平台" stroke="none" stroke-width="1" fill="none" fill-rule="evenodd">
        <g id="画板" transform="translate(-205.000000, -42.000000)">
            <g id="编组-24" transform="translate(205.000000, 42.000000)">
                <path d="M16.3981961,11.3916576 L15.960549,10.9745453 C15.6018512,10.646161 15.0457579,10.6673292 14.7130624,11.022032 L14.2086774,11.5610694 L16.027287,13.0973261 L16.4649341,12.6224598 C16.783741,12.26275 16.7539923,11.7135429 16.3981961,11.3903742 L16.3981961,11.3916576 Z M10.334025,15.7501603 C9.98750092,16.268663 9.80782178,16.8795721 9.82065599,17.5033154 C9.85508789,17.7514418 10.055187,17.9435794 10.3045063,17.9679143 L10.3712442,17.9679143 C10.987287,17.9422459 11.5802282,17.7343314 12.0756292,17.3711229 L15.0749875,14.1202138 L13.2563779,12.5852405 L10.334025,15.7501603 L10.334025,15.7501603 Z M14.5128485,7.88406405 L14.5128485,2.33967902 C14.5407387,1.73982254 14.3255884,1.15405834 13.9160571,0.714866186 C13.5057089,0.274849373 12.9362933,0.0174106948 12.3348806,-1.17455331e-07 L2.18300894,-1.17455331e-07 C1.57980039,0.0166843808 1.00867739,0.274652295 0.599265616,0.714866186 C0.188570435,1.1550801 -0.025761128,1.74160415 0.00247417237,2.34096245 L0.00247417237,14.0162566 C-0.0269679275,15.2510478 0.948304937,16.2768351 2.18300894,16.3097325 L6.74300893,16.3097325 C7.28974689,16.3097325 7.81081642,16.0735828 8.17145812,15.6654544 L13.9507095,9.32534748 C14.3100678,8.93133677 14.5102817,8.4179678 14.5115651,7.88406405 L14.5128485,7.88406405 Z M6.51584315,12.8983956 L2.50771481,12.8983956 C2.25153327,12.9207144 2.00466477,12.7966572 1.86969264,12.5777745 C1.73472052,12.3588918 1.73472052,12.0826053 1.86969264,11.8637226 C2.00466477,11.6448399 2.25153327,11.5207827 2.50771481,11.5431015 L6.51584315,11.5431015 C6.77202469,11.5207827 7.01889319,11.6448399 7.15386532,11.8637226 C7.28883744,12.0826053 7.28883744,12.3588918 7.15386532,12.5777745 C7.01889319,12.7966572 6.77202469,12.9207144 6.51584315,12.8983956 Z M9.22899824,8.85176459 L2.50771481,8.85176459 C2.25153327,8.87408341 2.00466477,8.7500262 1.86969264,8.5311435 C1.73472052,8.3122608 1.73472052,8.03597426 1.86969264,7.81709156 C2.00466477,7.59820886 2.25153327,7.47415165 2.50771481,7.49647047 L9.22899824,7.49647047 C9.48517978,7.47415165 9.73204829,7.59820886 9.86702041,7.81709156 C10.0019925,8.03597426 10.0019925,8.3122608 9.86702041,8.5311435 C9.73204829,8.7500262 9.48517978,8.87408341 9.22899824,8.85176459 L9.22899824,8.85176459 Z M11.9999073,4.79614961 L2.4781961,4.79614961 C2.10606841,4.79614961 1.80439931,4.49448051 1.80439931,4.12235282 C1.80439931,3.75022513 2.10606841,3.44855603 2.4781961,3.44855603 L11.9986239,3.44855603 C12.3707516,3.44855603 12.6724207,3.75022513 12.6724207,4.12235282 C12.6724207,4.49448051 12.3707516,4.79614961 11.9986239,4.79614961 L11.9999073,4.79614961 Z" id="形状" fill-opacity="0.4" fill="#000000" fill-rule="nonzero"></path>
                <rect id="矩形备份-17" x="0" y="0" width="18" height="18"></rect>
            </g>
        </g>
    </g>
</svg>