<?xml version="1.0" encoding="UTF-8"?>
<svg width="32px" height="32px" viewBox="0 0 32 32" version="1.1" xmlns="http://www.w3.org/2000/svg" xmlns:xlink="http://www.w3.org/1999/xlink">
    <!-- Generator: Sketch 58 (84663) - https://sketch.com -->
    <title>头像icon</title>
    <desc>Created with Sketch.</desc>
    <g id="云测平台" stroke="none" stroke-width="1" fill="none" fill-rule="evenodd">
        <g id="画板" transform="translate(-305.000000, -34.000000)">
            <rect id="矩形备份-6" fill="#DCF6EF" x="305" y="34" width="32" height="32" rx="16"></rect>
            <path d="M326.766924,54.7541413 C326.421697,53.9661546 324.755598,53.4408302 323.644865,52.953029 C322.534132,52.4652277 322.684231,52.1650423 322.646707,51.7597921 C322.639202,51.7072596 322.639202,51.6472226 322.639202,51.5871855 C323.021954,51.2494769 323.329657,50.7841896 323.532291,50.2513605 C323.532291,50.2513605 323.539796,50.221342 323.547301,50.2138374 C323.59233,50.1012679 323.629855,49.9736891 323.659875,49.8536149 C323.915043,49.8010825 324.065142,49.523411 324.117677,49.2682534 C324.177716,49.1631885 324.290291,48.908031 324.267776,48.6153502 C324.230251,48.2401185 324.080152,48.0675119 323.915043,47.9999702 L323.915043,47.9324285 C323.915043,47.4596365 323.870013,46.7692101 323.787459,46.3189321 C323.772449,46.1913533 323.742429,46.0712791 323.704905,45.9437003 C323.539796,45.395862 323.202073,44.8930515 322.744271,44.5478383 C322.263954,44.1951205 321.596013,44 321.003122,44 C320.410231,44 319.742291,44.1876159 319.269479,44.5478383 C318.811677,44.9005561 318.473954,45.395862 318.308845,45.9437003 C318.27132,46.0712791 318.241301,46.1913533 318.226291,46.3189321 C318.136231,46.7692101 318.098706,47.4521319 318.098706,47.9324285 L318.098706,47.9924656 C317.918588,48.0600073 317.760984,48.2326139 317.723459,48.6153502 C317.700944,48.9005263 317.821023,49.1556839 317.873558,49.2607488 C317.933598,49.523411 318.083697,49.8010825 318.34637,49.8461103 C318.37639,49.9736891 318.413914,50.0937632 318.458944,50.2138374 C318.458944,50.221342 318.466449,50.2288466 318.466449,50.2363513 L318.473954,50.2438559 C318.676588,50.7841896 318.999301,51.2569816 319.389558,51.5946901 C319.389558,51.6472226 319.382053,51.699755 319.382053,51.7522875 C319.344528,52.1575377 319.457103,52.4577231 318.353875,52.9455243 C317.243142,53.4333256 315.577043,53.95865 315.231815,54.7466366 C314.886588,55.5346232 315.029182,56 315.029182,56 L326.977063,56 C326.969558,56.0074152 327.112152,55.5421279 326.766924,54.7541413 Z" id="person" fill="#14C393" fill-rule="nonzero"></path>
        </g>
    </g>
</svg>