<?xml version="1.0" encoding="UTF-8"?>
<svg width="18px" height="18px" viewBox="0 0 18 18" version="1.1" xmlns="http://www.w3.org/2000/svg" xmlns:xlink="http://www.w3.org/1999/xlink">
    <!-- Generator: Sketch 58 (84663) - https://sketch.com -->
    <title>通知</title>
    <desc>Created with Sketch.</desc>
    <defs>
        <path d="M8.8,17.6 C10.01,17.6 11,16.61 11,15.4 L6.6,15.4 C6.6,16.61 7.59,17.6 8.8,17.6 Z M15.4,12.1 C14.795,12.1 14.3,11.605 14.3,11 L14.3,6.6 C14.3,3.927 12.397,1.705 9.878,1.21 C9.878,1.166 9.9,1.144 9.9,1.1 C9.9,0.495 9.405,0 8.8,0 C8.195,0 7.7,0.495 7.7,1.1 C7.7,1.144 7.722,1.166 7.722,1.21 C5.203,1.705 3.3,3.927 3.3,6.6 L3.3,11 C3.3,11.605 2.805,12.1 2.2,12.1 C1.595,12.1 1.1,12.595 1.1,13.2 C1.1,13.805 1.595,14.3 2.2,14.3 L15.4,14.3 C16.005,14.3 16.5,13.805 16.5,13.2 C16.5,12.595 16.005,12.1 15.4,12.1 Z" id="path-1"></path>
    </defs>
    <g id="云测平台" stroke="none" stroke-width="1" fill="none" fill-rule="evenodd">
        <g id="画板" transform="translate(-247.000000, -42.000000)">
            <g id="编组-25" transform="translate(246.900000, 42.000000)">
                <rect id="矩形备份-15" x="0" y="0" width="18" height="18"></rect>
                <mask id="mask-2" fill="white">
                    <use xlink:href="#path-1"></use>
                </mask>
                <use id="notifications" fill-opacity="0.4" fill="#000000" fill-rule="nonzero" xlink:href="#path-1"></use>
            </g>
            <g id="编组-21" transform="translate(246.000000, 42.000000)"></g>
            <g id="Icon-/-notifications" transform="translate(247.000000, 42.000000)"></g>
        </g>
    </g>
</svg>