<?xml version="1.0" encoding="UTF-8"?>
<svg width="18px" height="18px" viewBox="0 0 18 18" version="1.1" xmlns="http://www.w3.org/2000/svg" xmlns:xlink="http://www.w3.org/1999/xlink">
    <!-- Generator: Sketch 58 (84663) - https://sketch.com -->
    <title>帮助文档</title>
    <desc>Created with Sketch.</desc>
    <g id="云测平台" stroke="none" stroke-width="1" fill="none" fill-rule="evenodd">
        <rect id="矩形备份-17" x="0" y="0" width="18" height="18"></rect>
        <path d="M15.9336493,1.54285738 L15.9336493,1.17453965e-07 L3.99052133,1.17453965e-07 C2.91158676,-0.000371504588 2.02877153,0.832159278 2,1.87714308 L2,16.1485716 C2.05243765,17.1443788 2.87022601,17.9422564 3.89763034,18.0000001 L15.9336493,18.0000001 L15.9336493,2.73857166 L4.2028436,2.73857166 C3.88671329,2.70519964 3.6499838,2.4422726 3.65876776,2.13428594 C3.6575897,1.8196424 3.90580924,1.55677651 4.22938389,1.53000023 L16,1.53000023 L15.9336493,1.54285738 Z M10,15.0000001 L8,15.0000001 L8,13.0000001 L10,13.0000001 L10,15.0000001 Z M6.24037704,6.96358951 C6.37680403,6.57299922 6.57879377,6.21477387 6.83559639,5.90797819 C7.09853001,5.6070564 7.41404244,5.36901834 7.76276497,5.20847672 C8.15838169,5.04919031 8.57880134,4.97998626 8.99898976,5.00498538 C9.49842913,4.98611137 9.99631501,5.07687072 10.4641451,5.27206776 C10.8132641,5.4208708 11.1326222,5.6459831 11.4027602,5.9334146 C11.6168102,6.16742964 11.7839295,6.44977387 11.8949608,6.76009816 C11.9705079,7.01446232 12.0059921,7.2815447 11.9979795,7.5486271 C12.011061,7.91208053 11.9605248,8.2748999 11.8491747,8.61695663 C11.7576025,8.87132079 11.6351247,9.11296676 11.4828859,9.32917631 C11.3346151,9.51757641 11.165374,9.68425129 10.9792387,9.82518644 L10.4298055,10.283042 C10.2466611,10.4356605 10.0864097,10.6137154 9.9490514,10.8172067 C9.7919972,11.0469382 9.69318612,11.3192144 9.66288826,11.6057356 L9.66288826,12.0000001 L8.24351906,12.0000001 L8.24351906,11.5167082 C8.25840838,11.1886665 8.32424202,10.8659565 8.43811,10.5628425 C8.5356236,10.3238852 8.66276969,10.1012752 8.81584535,9.9014957 C8.95806075,9.72414748 9.11521166,9.5623138 9.2851529,9.41820377 C9.4568508,9.27830348 9.61710216,9.12568497 9.76590699,8.98578467 C9.91611797,8.83554477 10.0436518,8.65949008 10.1436423,8.46433812 C10.253159,8.24319101 10.3009741,7.99083705 10.2810007,7.73940022 C10.3060115,7.34022075 10.1865121,6.94647288 9.9490514,6.64563428 C9.69377244,6.37854877 9.3484226,6.24447883 8.99898976,6.27680624 C8.76861831,6.26807231 8.54006805,6.32499027 8.33509127,6.44214295 C8.15194686,6.55151955 7.9916955,6.70286623 7.8657837,6.88728025 C7.76106314,7.09294735 7.68758275,7.31639381 7.64829973,7.5486271 C7.60872882,7.74119547 7.58194814,7.9367346 7.56817405,8.13366469 L6,8.13366469 C6.01674388,7.73336996 6.09013817,7.33850488 6.21748399,6.96358951 L6.24037704,6.96358951 L6.24037704,6.96358951 Z" id="形状" fill-opacity="0.4" fill="#000000" fill-rule="nonzero"></path>
    </g>
</svg>