<?xml version="1.0" encoding="UTF-8"?>
<svg width="18px" height="18px" viewBox="0 0 18 18" version="1.1" xmlns="http://www.w3.org/2000/svg" xmlns:xlink="http://www.w3.org/1999/xlink">
    <!-- Generator: Sketch 58 (84663) - https://sketch.com -->
    <title>小工具</title>
    <desc>Created with Sketch.</desc>
    <g id="云测平台" stroke="none" stroke-width="1" fill="none" fill-rule="evenodd">
        <g id="画板" transform="translate(-120.000000, -42.000000)">
            <g id="编组-20" transform="translate(120.000000, 42.000000)">
                <g id="编组-22">
                    <rect id="矩形备份-19" x="0" y="1.17455329e-07" width="18" height="18"></rect>
                    <path d="M12.9999796,3.00001981 L12.9999796,1 C13.0156173,0.523944984 12.4501656,0 11.9999755,0 L6.49998777,0 C6.03905688,0 5.4999837,0.504149492 5.4999837,1 L5.4999837,3.00001978 L2.5,3.00001981 C1.75291925,3.00001981 1,3.79712853 1,4.5 L1,7 L17,7 L17,4.5 C17,3.75559729 16.242438,3.00001981 15.5000285,3.00001981 L12.9999796,3.00001981 Z M11,3 L7,3 L7,2.3333282 C7,2.13101526 7.17579575,2 7.4444376,2 L10.5555419,2 C10.8239989,2 11,2.13103065 11,2.3333282 L11,3 L11,3 Z M9.1843817,9.98193681 C9.97228177,9.98193681 10,8.77149621 10,8 L8,8 C8.01347106,8.62084658 8.01563308,10 8.80000369,10 C8.80000371,10 9.01953211,9.98193681 9.1843817,9.98193681 Z M11.0456543,8 C11.0566406,8 12.067872,11 9.02514648,11 C5.88353607,11 7,8 7,8 L1,8 L1,16.5882366 C1,17.3111297 1.67431591,18 2.5,18 L15.5000265,18 C16.2510065,18 17,17.3910671 17,16.5882366 L17,8 L11.0456543,8 Z" id="形状" fill-opacity="0.4" fill="#000000" fill-rule="nonzero"></path>
                </g>
            </g>
            <g id="编组-19" transform="translate(124.000000, 42.000000)"></g>
        </g>
    </g>
</svg>