<?xml version="1.0" encoding="UTF-8"?>
<svg width="14px" height="10px" viewBox="0 0 14 10" version="1.1" xmlns="http://www.w3.org/2000/svg" xmlns:xlink="http://www.w3.org/1999/xlink">
    <!-- Generator: Sketch 58 (84663) - https://sketch.com -->
    <title>头部导航栏-导航栏展开</title>
    <desc>Created with Sketch.</desc>
    <defs>
        <path d="M12.3672705,4.125 L4.94690818,4.125 C4.4934416,4.125 4.12242349,4.49625 4.12242349,4.95 C4.12242349,5.40375 4.4934416,5.775 4.94690818,5.775 L12.3672705,5.775 C12.820737,5.775 13.1917552,5.40375 13.1917552,4.95 C13.1917552,4.49625 12.820737,4.125 12.3672705,4.125 Z M2.47345409,2.475 C2.24259838,2.475 2.0364772,2.56575 1.88806996,2.71425 L0.239100562,4.36425 C0.0906933167,4.521 0,4.72725 0,4.95 C0,5.17275 0.0906933167,5.38725 0.239100562,5.53575 L1.88806996,7.18575 C2.0364772,7.33425 2.24259838,7.425 2.47345409,7.425 C2.92692067,7.425 3.29793879,7.05375 3.29793879,6.6 L3.29793879,3.3 C3.29793879,2.84625 2.92692067,2.475 2.47345409,2.475 L2.47345409,2.475 Z M4.94690818,1.65 L12.3672705,1.65 C12.820737,1.65 13.1917552,1.27875 13.1917552,0.825 C13.1917552,0.37125 12.820737,0 12.3672705,0 L4.94690818,0 C4.4934416,0 4.12242349,0.37125 4.12242349,0.825 C4.12242349,1.27875 4.4934416,1.65 4.94690818,1.65 Z M12.3672705,8.25 L4.94690818,8.25 C4.4934416,8.25 4.12242349,8.62125 4.12242349,9.075 C4.12242349,9.52875 4.4934416,9.9 4.94690818,9.9 L12.3672705,9.9 C12.820737,9.9 13.1917552,9.52875 13.1917552,9.075 C13.1917552,8.62125 12.820737,8.25 12.3672705,8.25 Z" id="path-1"></path>
    </defs>
    <g id="云测平台" stroke="none" stroke-width="1" fill="none" fill-rule="evenodd">
        <g id="画板" transform="translate(-78.000000, -61.000000)">
            <g id="编组-3备份" transform="translate(85.000000, 66.000000) scale(-1, 1) translate(-85.000000, -66.000000) translate(78.000000, 61.000000)">
                <g id="Icon-/-menu-closed">
                    <mask id="mask-2" fill="white">
                        <use xlink:href="#path-1"></use>
                    </mask>
                    <use id="menu-closed" fill-opacity="0.4" fill="#000000" fill-rule="nonzero" xlink:href="#path-1"></use>
                </g>
            </g>
        </g>
    </g>
</svg>