<?xml version="1.0" encoding="UTF-8"?>
<svg width="32px" height="32px" viewBox="0 0 32 32" version="1.1" xmlns="http://www.w3.org/2000/svg" xmlns:xlink="http://www.w3.org/1999/xlink">
    <!-- Generator: Sketch 58 (84663) - https://sketch.com -->
    <title>测试中台logo</title>
    <desc>Created with Sketch.</desc>
    <defs>
        <linearGradient x1="61.4065702%" y1="82.1917761%" x2="32.0976883%" y2="14.6361326%" id="linearGradient-1">
            <stop stop-color="#14C393" offset="0%"></stop>
            <stop stop-color="#41D6CC" offset="100%"></stop>
        </linearGradient>
    </defs>
    <g id="云测平台" stroke="none" stroke-width="1" fill="none" fill-rule="evenodd">
        <g id="画板" transform="translate(-16.000000, -34.000000)" fill="url(#linearGradient-1)" fill-rule="nonzero">
            <path d="M39.2184663,38.1451146 C39.7828784,38.2965698 40.1163947,38.8519052 39.9624641,39.3819981 C39.8085335,39.9373335 39.2441214,40.2654863 38.7053644,40.1140311 C38.0383318,39.9373335 37.3456442,40.0130611 36.755577,40.3664563 C36.3987761,40.5648832 36.1076382,40.8463762 35.8935075,41.1830308 C38.2731034,42.3715747 39.9136204,44.705985 39.9966922,47.3992697 L40.0182336,47.375 L40.0808094,47.4416791 C40.9661324,47.3972264 41.4164903,47.375 42.8,47.375 C45.675,47.375 48,49.6455078 48,52.453125 C48,55.2607422 45.675,57.53125 42.8,57.53125 C41.4840035,57.53125 40.2832452,57.0555241 39.3679601,56.2703175 C38.3033369,58.5931988 35.9907044,60.2930461 33.2278308,60.60478 L32,63 L30.7731699,60.6048928 C28.0094544,60.2934114 25.6961228,58.5929875 24.6305206,56.2690635 C23.7167881,57.0555109 22.5160148,57.53125 21.2,57.53125 C18.325,57.53125 16,55.2607422 16,52.453125 C16,49.6455078 18.325,47.375 21.2,47.375 C22.5835097,47.375 23.0338676,47.3972264 23.9191906,47.4416791 L23.9817664,47.375 L24.003,47.399 L24.0039502,47.3793698 C24.0944676,44.6944894 25.7327579,42.3686444 28.1059452,41.1821861 C27.8923618,40.8463762 27.6012239,40.5648832 27.244423,40.3664563 C26.6543558,40.0130611 25.9616682,39.9373335 25.2946356,40.1140311 C24.7558786,40.2654863 24.1914665,39.9373335 24.0375359,39.3819981 C23.8836053,38.8519052 24.2171216,38.2965698 24.7815337,38.1451146 C25.9873233,37.8422044 27.2187679,38.0189021 28.2706269,38.6247225 C29.0448986,39.0706659 29.6662594,39.7217707 30.0630822,40.5075614 C30.5873069,40.4002367 31.1320568,40.34375 31.6907563,40.34375 L32.3092437,40.34375 C32.8679432,40.34375 33.4126931,40.4002367 33.9375013,40.5074576 C34.3337406,39.7217707 34.9551014,39.0706659 35.7293731,38.6247225 C36.7812321,38.0189021 38.0126767,37.8422044 39.2184663,38.1451146 Z M37.7395361,54.4080587 L26.2617039,54.4080587 C26.8098231,56.800162 29.0470328,58.599288 31.6898084,58.599288 L32.3101916,58.599288 C34.9763546,58.599288 37.196395,56.800162 37.7395361,54.4080587 Z M24,50.822 L19.7100671,55.4171864 C20.1213659,55.6041122 20.58091,55.7083333 21.0666667,55.7083333 C22.3960165,55.7083333 23.5290529,54.9277905 24.0141996,53.8076974 C24.0042999,53.6680835 24,53.5275001 24,53.3859961 L24,50.822 Z M40,50.822 L40,53.3859961 C40,53.5275001 39.9957001,53.6680835 39.9872166,53.8076348 C40.4709471,54.9277905 41.6039835,55.7083333 42.9333333,55.7083333 C43.41909,55.7083333 43.8786341,55.6041122 44.2899329,55.4171864 L40,50.822 Z M21.0666667,49.4583333 C19.2916667,49.4583333 17.8666667,50.8499349 17.8666667,52.5833333 C17.8666667,52.9835812 17.9426426,53.3656056 18.0813602,53.7164825 L22.0398469,49.464183 C21.77411,49.4602832 21.4623188,49.4583333 21.0666667,49.4583333 Z M42.9333333,49.4583333 C42.5376812,49.4583333 42.22589,49.4602832 41.9601531,49.464183 L45.9186398,53.7164825 C46.0573574,53.3656056 46.1333333,52.9835812 46.1333333,52.5833333 C46.1333333,50.8499349 44.7083333,49.4583333 42.9333333,49.4583333 Z M37.6,49.718 L26.4,49.718 L26.4,52.062 L37.6,52.062 L37.6,49.718 Z M32.3101916,42.1435918 L31.6898084,42.1435918 C28.6488606,42.1435918 26.1882745,44.484078 26.1342407,47.3754027 L37.864,47.375 L37.8622184,47.2587483 C37.7439796,44.4213857 35.2838202,42.1435918 32.3101916,42.1435918 Z" id="形状结合"></path>
        </g>
    </g>
</svg>